<svg width="51" height="35" viewBox="0 0 51 35" fill="none" xmlns="http://www.w3.org/2000/svg">
<path d="M14.44 34.96C10.52 34.96 7.2 33.68 4.76 31.24C3.44 29.92 2.44 28.4 1.84 26.8C0.8 23.96 0.28 20.88 0.28 17.64C0.28 13.44 1.28 9.08 2.8 6.56C5.24 2.48 9.4 0.239997 14.44 0.239997C18.32 0.239997 21.72 1.56 24.16 3.96C25.48 5.28 26.48 6.8 27.08 8.4C28.12 11.24 28.64 14.32 28.64 17.6C28.64 21.8 27.64 26.2 26.12 28.72C23.72 32.72 19.52 34.96 14.44 34.96ZM14.44 7C10.68 7 8.48 10.8 8.48 17.32C8.48 24.48 10.52 28.16 14.48 28.16C18.4 28.16 20.4 24.56 20.4 17.44C20.4 10.6 18.32 7 14.44 7ZM35.6575 8.08V0.679999C37.0975 0.919998 38.1375 0.959998 40.4575 0.959998H45.5375C48.3775 0.959998 48.8975 0.959998 50.4975 0.799997C50.2975 2.92 50.2175 4.6 50.2175 7.24V28.2C50.2175 30.6 50.2975 32.28 50.5375 34.24H41.8175C42.0575 32.4 42.1375 30.52 42.1375 28.2V7.8H40.5375C38.9775 7.8 37.4175 7.88 35.6575 8.08Z" fill="white"/>
</svg>
