<svg width="59" height="35" viewBox="0 0 59 35" fill="none" xmlns="http://www.w3.org/2000/svg">
<path d="M14.44 34.96C10.52 34.96 7.2 33.68 4.76 31.24C3.44 29.92 2.44 28.4 1.84 26.8C0.8 23.96 0.28 20.88 0.28 17.64C0.28 13.44 1.28 9.08 2.8 6.56C5.24 2.48 9.4 0.239997 14.44 0.239997C18.32 0.239997 21.72 1.56 24.16 3.96C25.48 5.28 26.48 6.8 27.08 8.4C28.12 11.24 28.64 14.32 28.64 17.6C28.64 21.8 27.64 26.2 26.12 28.72C23.72 32.72 19.52 34.96 14.44 34.96ZM14.44 7C10.68 7 8.48 10.8 8.48 17.32C8.48 24.48 10.52 28.16 14.48 28.16C18.4 28.16 20.4 24.56 20.4 17.44C20.4 10.6 18.32 7 14.44 7ZM51.8575 34.24H37.8175C34.2175 34.24 33.2975 34.28 31.8175 34.4C31.9775 32.44 32.1775 31.24 32.6575 29.68C33.6975 26.36 35.6175 23.32 38.4175 20.72C39.9375 19.32 41.4575 18.16 45.5375 15.4C48.9775 13.08 49.8175 12.04 49.8175 10.2C49.8175 8.28 48.0975 7 45.5375 7C43.6175 7 42.2575 7.64 41.3775 9C40.8175 9.88 40.5775 10.68 40.3775 12.36L31.9775 11.48C32.5775 8 33.2975 6.24 34.8975 4.36C37.1775 1.68 40.8175 0.239997 45.4975 0.239997C50.8975 0.239997 55.0175 2.04 57.0175 5.28C57.8975 6.68 58.3375 8.24 58.3375 9.96C58.3375 12.88 57.1375 15.36 54.6575 17.4C53.3375 18.56 52.9375 18.84 48.8575 21.68C45.3775 24.08 43.8975 25.48 42.9775 27.24H52.2975C55.2975 27.24 57.1375 27.16 58.6975 26.96V34.52C56.3775 34.32 54.6975 34.24 51.8575 34.24Z" fill="white"/>
</svg>
