<svg width="60" height="36" viewBox="0 0 60 36" fill="none" xmlns="http://www.w3.org/2000/svg">
<path d="M14.44 34.96C10.52 34.96 7.2 33.68 4.76 31.24C3.44 29.92 2.44 28.4 1.84 26.8C0.8 23.96 0.28 20.88 0.28 17.64C0.28 13.44 1.28 9.08 2.8 6.56C5.24 2.48 9.4 0.239997 14.44 0.239997C18.32 0.239997 21.72 1.56 24.16 3.96C25.48 5.28 26.48 6.8 27.08 8.4C28.12 11.24 28.64 14.32 28.64 17.6C28.64 21.8 27.64 26.2 26.12 28.72C23.72 32.72 19.52 34.96 14.44 34.96ZM14.44 7C10.68 7 8.48 10.8 8.48 17.32C8.48 24.48 10.52 28.16 14.48 28.16C18.4 28.16 20.4 24.56 20.4 17.44C20.4 10.6 18.32 7 14.44 7ZM31.3375 25.56L39.8175 24.08C40.0575 25.4 40.2975 25.96 40.9375 26.64C42.0175 27.76 43.6175 28.36 45.5375 28.36C48.6575 28.36 50.6175 26.8 50.6175 24.36C50.6175 22.72 49.8175 21.44 48.4575 20.92C47.5375 20.6 46.2975 20.4 44.7375 20.4C43.1775 20.4 41.3775 20.48 39.8175 20.64V13.76C41.1775 13.92 42.4975 14 44.0575 14C47.8575 14 49.7375 12.72 49.7375 10.16C49.7375 8 48.2175 6.76 45.5775 6.76C42.7375 6.76 41.2975 7.88 40.6975 10.44L32.0575 9.2C32.8175 6.72 33.4575 5.52 34.7375 4.12C37.1775 1.48 40.8575 0.119999 45.7375 0.119999C50.0975 0.119999 53.6975 1.32 55.9775 3.52C57.4575 5 58.2175 6.92 58.2175 9.2C58.2175 13.44 55.9375 16.08 51.3375 17.16C53.7775 17.52 55.0975 18.08 56.4975 19.28C58.1775 20.8 59.1375 22.88 59.1375 25.2C59.1375 27.24 58.5775 29.12 57.5375 30.52C56.6575 31.72 55.2575 32.84 53.7775 33.52C51.6975 34.48 48.4575 35.08 45.4575 35.08C41.8575 35.08 38.2575 34.24 36.1375 32.84C34.2975 31.64 32.8975 29.88 32.0175 27.68C31.7775 27.12 31.6175 26.6 31.3375 25.56Z" fill="white"/>
</svg>
