<svg width="114" height="114" viewBox="0 0 114 114" fill="none" xmlns="http://www.w3.org/2000/svg">
<path d="M57 0L65.1143 5.76861L74.614 2.78978L80.5485 10.7835L90.5038 10.886L93.6776 20.3224L103.114 23.4962L103.217 33.4515L111.21 39.386L108.231 48.8857L114 57L108.231 65.1143L111.21 74.614L103.217 80.5485L103.114 90.5038L93.6776 93.6776L90.5038 103.114L80.5485 103.217L74.614 111.21L65.1143 108.231L57 114L48.8857 108.231L39.386 111.21L33.4515 103.217L23.4962 103.114L20.3224 93.6776L10.886 90.5038L10.7835 80.5485L2.78978 74.614L5.76861 65.1143L0 57L5.76861 48.8857L2.78978 39.386L10.7835 33.4515L10.886 23.4962L20.3224 20.3224L23.4962 10.886L33.4515 10.7835L39.386 2.78978L48.8857 5.76861L57 0Z" fill="black"/>
<path d="M31.04 53.98L26.92 54.78C26.54 52.96 25.48 52.06 23.76 52.06C21.32 52.06 19.9 53.98 19.9 57.28C19.9 60.54 21.38 62.52 23.86 62.52C24.96 62.52 25.9 62.06 26.48 61.26C26.82 60.78 26.96 60.38 27.08 59.54L31.24 60.16C30.86 61.86 30.42 62.84 29.58 63.82C28.34 65.24 26.4 66 23.98 66C21.54 66 19.48 65.24 18.06 63.8C16.58 62.3 15.74 59.96 15.74 57.28C15.74 54.56 16.58 52.26 18.16 50.7C19.54 49.36 21.56 48.62 23.9 48.62C26.48 48.62 28.5 49.5 29.8 51.24C30.44 52.06 30.78 52.8 31.04 53.98ZM43.8545 48.98H48.1545C48.0345 49.8 47.9945 50.54 47.9945 51.94V62.66C47.9945 63.96 48.0345 64.64 48.1545 65.62H43.8545C43.9745 64.78 44.0145 64.04 44.0145 62.66V58.78H37.2745V62.66C37.2745 63.96 37.3145 64.72 37.4345 65.62H33.1345C33.2545 64.8 33.2945 64.06 33.2945 62.66V51.94C33.2945 50.56 33.2545 49.84 33.1345 48.98H37.4345C37.3145 49.92 37.2745 50.7 37.2745 51.94V55.26H44.0145V51.94C44.0145 50.56 43.9745 49.76 43.8545 48.98ZM63.1941 62.02V65.76C62.3341 65.66 61.6141 65.62 59.8941 65.62H53.5941C52.0741 65.62 51.5141 65.64 50.6541 65.68C50.7741 64.88 50.8141 64.14 50.8141 62.76V51.84C50.8141 50.6 50.7741 49.9 50.6541 48.92C51.4741 48.96 52.0341 48.98 53.5941 48.98H59.9741C61.3341 48.98 62.0141 48.94 62.9541 48.84V52.58C62.0341 52.48 61.3141 52.44 59.9741 52.44H54.7741V55.38H59.0941C60.4141 55.38 60.8941 55.36 62.0941 55.24V58.94C61.1541 58.84 60.4741 58.8 59.0941 58.8H54.7741V62.16H59.9341C61.4541 62.16 62.3341 62.12 63.1941 62.02ZM80.0244 53.98L75.9044 54.78C75.5244 52.96 74.4644 52.06 72.7444 52.06C70.3044 52.06 68.8844 53.98 68.8844 57.28C68.8844 60.54 70.3644 62.52 72.8444 62.52C73.9444 62.52 74.8844 62.06 75.4644 61.26C75.8044 60.78 75.9444 60.38 76.0644 59.54L80.2244 60.16C79.8444 61.86 79.4044 62.84 78.5644 63.82C77.3244 65.24 75.3844 66 72.9644 66C70.5244 66 68.4644 65.24 67.0444 63.8C65.5644 62.3 64.7244 59.96 64.7244 57.28C64.7244 54.56 65.5644 52.26 67.1444 50.7C68.5244 49.36 70.5444 48.62 72.8844 48.62C75.4644 48.62 77.4844 49.5 78.7844 51.24C79.4244 52.06 79.7644 52.8 80.0244 53.98ZM90.9589 55.56L95.7789 62.66C96.9589 64.42 97.2189 64.78 97.8989 65.62H92.6989C92.4189 64.98 91.8389 63.92 91.3189 63.08L88.2189 58.12L86.1989 60.14V62.66C86.1989 63.9 86.2389 64.56 86.3589 65.62H82.1189C82.2389 64.6 82.2789 63.86 82.2789 62.66V51.94C82.2789 50.72 82.2389 49.94 82.1189 48.98H86.3589C86.2389 50.02 86.1989 50.68 86.1989 51.94V55.48L90.1789 51.22C90.9589 50.4 91.4789 49.72 91.9189 48.98H97.3189C96.9589 49.34 96.8189 49.5 96.5389 49.78C95.4989 50.82 95.4989 50.82 95.1389 51.18L90.9589 55.56Z" fill="white"/>
</svg>
